<svg xmlns="http://www.w3.org/2000/svg" xmlns:xlink="http://www.w3.org/1999/xlink" xmlns:lucid="lucid" width="1284.34" height="356.67"><g transform="translate(-739 -199)" lucid:page-tab-id="0_0"><path d="M500 0h2000v1000H500z" fill="#fff"/><path d="M760 300.67a6 6 0 0 1 6-6h228a6 6 0 0 1 6 6V374a6 6 0 0 1-6 6H766a6 6 0 0 1-6-6z" stroke="#282c33" stroke-width="2" fill="#fff0fb"/><use xlink:href="#a" transform="matrix(1,0,0,1,772,306.66666666666663) translate(19.933333333333323 28.291666666666664)"/><use xlink:href="#b" transform="matrix(1,0,0,1,772,306.66666666666663) translate(72.33333333333331 28.291666666666664)"/><use xlink:href="#c" transform="matrix(1,0,0,1,772,306.66666666666663) translate(7.611111111111086 48.73611111111111)"/><use xlink:href="#d" transform="matrix(1,0,0,1,772,306.66666666666663) translate(66.83333333333331 48.73611111111111)"/><use xlink:href="#e" transform="matrix(1,0,0,1,772,306.66666666666663) translate(143.85555555555555 48.73611111111111)"/><path d="M1160 294.67h80v40h-80zM1240 294.67h80v40h-80zM1320 294.67h81.24v40H1320zM1401.24 294.67h80v40h-80zM1160 334.67h80v40h-80zM1240 334.67h80v40h-80zM1320 334.67h81.24v40H1320zM1401.24 334.67h80v40h-80zM1160 374.67h80v40h-80zM1240 374.67h80v40h-80zM1320 374.67h81.24v40H1320zM1401.24 374.67h80v40h-80zM1160 414.67h80v40h-80zM1240 414.67h80v40h-80zM1320 414.67h81.24v40H1320zM1401.24 414.67h80v40h-80zM1160 454.67h80v40h-80zM1240 454.67h80v40h-80zM1320 454.67h81.24v40H1320zM1401.24 454.67h80v40h-80zM1160 494.67h80v40h-80zM1240 494.67h80v40h-80zM1320 494.67h81.24v40H1320zM1401.24 494.67h80v40h-80z" fill="#fff3d9"/><path d="M1160 294.67v40M1240 294.67v40M1320 294.67v40M1401.24 294.67v40M1481.24 294.67v40M1160 334.67v40M1240 334.67v40M1320 334.67v40M1401.24 334.67v40M1481.24 334.67v40M1160 374.67v40M1240 374.67v40M1320 374.67v40M1401.24 374.67v40M1481.24 374.67v40M1160 414.67v40M1240 414.67v40M1320 414.67v40M1401.24 414.67v40M1481.24 414.67v40M1160 454.67v40M1240 454.67v40M1320 454.67v40M1401.24 454.67v40M1481.24 454.67v40M1160 494.67v40M1240 494.67v40M1320 494.67v40M1401.24 494.67v40M1481.24 494.67v40M1160 294.67h80M1240 294.67h80M1320 294.67h81.24M1401.24 294.67h80M1160 334.67h80M1240 334.67h80M1320 334.67h81.24M1401.24 334.67h80M1160 374.67h80M1240 374.67h80M1320 374.67h81.24M1401.24 374.67h80M1160 414.67h80M1240 414.67h80M1320 414.67h81.24M1401.24 414.67h80M1160 454.67h80M1240 454.67h80M1320 454.67h81.24M1401.24 454.67h80M1160 494.67h80M1160 534.67h80M1240 494.67h80M1240 534.67h80M1320 494.67h81.24M1320 534.67h81.24M1401.24 494.67h80M1401.24 534.67h80" stroke="#282c33" stroke-width="2" fill="none"/><use xlink:href="#f" transform="matrix(1,0,0,1,1165,299.66666666666663) translate(0.7888888888888914 21.444444444444443)"/><use xlink:href="#g" transform="matrix(1,0,0,1,1245,299.66666666666663) translate(10.277777777777779 21.444444444444443)"/><use xlink:href="#h" transform="matrix(1,0,0,1,1325,299.66666666666663) translate(3.377777777777773 21.444444444444443)"/><use xlink:href="#i" transform="matrix(1,0,0,1,1406.2444444444445,299.66666666666663) translate(7.511111111111106 21.444444444444443)"/><use xlink:href="#j" transform="matrix(1,0,0,1,1165,339.66666666666663) translate(27.58888888888889 21.444444444444443)"/><use xlink:href="#k" transform="matrix(1,0,0,1,1245,339.66666666666663) translate(10.388888888888886 21.444444444444443)"/><use xlink:href="#l" transform="matrix(1,0,0,1,1325,339.66666666666663) translate(8.422222222222224 21.444444444444443)"/><use xlink:href="#m" transform="matrix(1,0,0,1,1406.2444444444445,339.66666666666663) translate(14.066666666666663 21.444444444444443)"/><use xlink:href="#n" transform="matrix(1,0,0,1,1165,379.66666666666663) translate(26.977777777777778 21.444444444444443)"/><use xlink:href="#o" transform="matrix(1,0,0,1,1245,379.66666666666663) translate(7.55555555555555 21.444444444444443)"/><use xlink:href="#l" transform="matrix(1,0,0,1,1325,379.66666666666663) translate(8.422222222222224 21.444444444444443)"/><use xlink:href="#p" transform="matrix(1,0,0,1,1406.2444444444445,379.66666666666663) translate(2.05555555555555 21.444444444444443)"/><use xlink:href="#j" transform="matrix(1,0,0,1,1165,419.66666666666663) translate(27.58888888888889 21.444444444444443)"/><use xlink:href="#q" transform="matrix(1,0,0,1,1245,419.66666666666663) translate(7.333333333333329 21.444444444444443)"/><use xlink:href="#r" transform="matrix(1,0,0,1,1325,419.66666666666663) translate(0.3777777777777729 21.444444444444443)"/><use xlink:href="#p" transform="matrix(1,0,0,1,1406.2444444444445,419.66666666666663) translate(2.05555555555555 21.444444444444443)"/><use xlink:href="#s" transform="matrix(1,0,0,1,1165,459.66666666666663) translate(28.288888888888888 21.444444444444443)"/><use xlink:href="#t" transform="matrix(1,0,0,1,1245,459.66666666666663) translate(7.066666666666663 21.444444444444443)"/><use xlink:href="#u" transform="matrix(1,0,0,1,1325,459.66666666666663) translate(18.055555555555557 21.444444444444443)"/><use xlink:href="#m" transform="matrix(1,0,0,1,1406.2444444444445,459.66666666666663) translate(14.066666666666663 21.444444444444443)"/><use xlink:href="#v" transform="matrix(1,0,0,1,1165,499.66666666666663) translate(27.58888888888889 21.444444444444443)"/><use xlink:href="#w" transform="matrix(1,0,0,1,1245,499.66666666666663) translate(6.222222222222218 21.444444444444443)"/><use xlink:href="#x" transform="matrix(1,0,0,1,1325,499.66666666666663) translate(11.43333333333333 21.444444444444443)"/><use xlink:href="#y" transform="matrix(1,0,0,1,1406.2444444444445,499.66666666666663) translate(12.055555555555557 21.444444444444443)"/><path d="M780 320.67a6 6 0 0 1 6-6h228a6 6 0 0 1 6 6V394a6 6 0 0 1-6 6H786a6 6 0 0 1-6-6z" stroke="#282c33" stroke-width="2" fill="#fff0fb"/><use xlink:href="#a" transform="matrix(1,0,0,1,792,326.66666666666663) translate(19.933333333333323 28.291666666666664)"/><use xlink:href="#b" transform="matrix(1,0,0,1,792,326.66666666666663) translate(72.33333333333331 28.291666666666664)"/><use xlink:href="#c" transform="matrix(1,0,0,1,792,326.66666666666663) translate(7.611111111111086 48.73611111111111)"/><use xlink:href="#d" transform="matrix(1,0,0,1,792,326.66666666666663) translate(66.83333333333331 48.73611111111111)"/><use xlink:href="#e" transform="matrix(1,0,0,1,792,326.66666666666663) translate(143.85555555555555 48.73611111111111)"/><path d="M800 340.67a6 6 0 0 1 6-6h228a6 6 0 0 1 6 6V414a6 6 0 0 1-6 6H806a6 6 0 0 1-6-6z" stroke="#282c33" stroke-width="2" fill="#fff0fb"/><use xlink:href="#a" transform="matrix(1,0,0,1,812,346.66666666666663) translate(19.933333333333323 28.291666666666664)"/><use xlink:href="#b" transform="matrix(1,0,0,1,812,346.66666666666663) translate(72.33333333333331 28.291666666666664)"/><use xlink:href="#c" transform="matrix(1,0,0,1,812,346.66666666666663) translate(7.611111111111086 48.73611111111111)"/><use xlink:href="#d" transform="matrix(1,0,0,1,812,346.66666666666663) translate(66.83333333333331 48.73611111111111)"/><use xlink:href="#e" transform="matrix(1,0,0,1,812,346.66666666666663) translate(143.85555555555555 48.73611111111111)"/><path d="M820 360.67a6 6 0 0 1 6-6h228a6 6 0 0 1 6 6V434a6 6 0 0 1-6 6H826a6 6 0 0 1-6-6z" stroke="#282c33" stroke-width="2" fill="#fff0fb"/><use xlink:href="#a" transform="matrix(1,0,0,1,832,366.66666666666663) translate(19.933333333333323 28.291666666666664)"/><use xlink:href="#b" transform="matrix(1,0,0,1,832,366.66666666666663) translate(72.33333333333331 28.291666666666664)"/><use xlink:href="#c" transform="matrix(1,0,0,1,832,366.66666666666663) translate(7.611111111111086 48.73611111111111)"/><use xlink:href="#d" transform="matrix(1,0,0,1,832,366.66666666666663) translate(66.83333333333331 48.73611111111111)"/><use xlink:href="#e" transform="matrix(1,0,0,1,832,366.66666666666663) translate(143.85555555555555 48.73611111111111)"/><path d="M840 386a6 6 0 0 1 6-6h228a6 6 0 0 1 6 6v73.33a6 6 0 0 1-6 6H846a6 6 0 0 1-6-6z" stroke="#282c33" stroke-width="2" fill="#fff0fb"/><use xlink:href="#a" transform="matrix(1,0,0,1,852,392) translate(11.122222222222206 28.291666666666664)"/><use xlink:href="#z" transform="matrix(1,0,0,1,852,392) translate(63.522222222222204 28.291666666666664)"/><use xlink:href="#A" transform="matrix(1,0,0,1,852,392) translate(150.54444444444445 28.291666666666664)"/><use xlink:href="#B" transform="matrix(1,0,0,1,852,392) translate(38.599999999999994 48.73611111111111)"/><use xlink:href="#C" transform="matrix(1,0,0,1,852,392) translate(115.75555555555556 48.73611111111111)"/><path d="M1561.24 294.67h114v40h-114z" fill-opacity="0"/><path d="M1675.24 294.67h85v40h-85zM1760.24 294.67h80.1v40h-80.1zM1840.34 294.67h81.34v40h-81.34zM1921.68 294.67h80.1v40h-80.1z" fill="#e3fae3"/><path d="M1561.24 294.67v40M1675.24 294.67v40M1760.24 294.67v40M1840.34 294.67v40M1921.68 294.67v40M2001.78 294.67v40M1561.24 294.67h114M1561.24 334.67h114M1675.24 294.67h85M1675.24 334.67h85M1760.24 294.67h80.1M1760.24 334.67h80.1M1840.34 294.67h81.34M1840.34 334.67h81.34M1921.68 294.67h80.1M1921.68 334.67h80.1" stroke="#282c33" stroke-width="2" fill="none"/><use xlink:href="#D" transform="matrix(1,0,0,1,1566.2444444444445,299.66666666666663) translate(5.477777777777774 21.444444444444443)"/><use xlink:href="#E" transform="matrix(1,0,0,1,1566.2444444444445,299.66666666666663) translate(57.87777777777777 21.444444444444443)"/><use xlink:href="#j" transform="matrix(1,0,0,1,1680.2444444444445,299.66666666666663) translate(30.08888888888889 21.444444444444443)"/><use xlink:href="#k" transform="matrix(1,0,0,1,1765.2444444444445,299.66666666666663) translate(10.888888888888886 21.444444444444443)"/><use xlink:href="#l" transform="matrix(1,0,0,1,1845.3414064489048,299.66666666666663) translate(8.422222222222224 21.444444444444443)"/><use xlink:href="#m" transform="matrix(1,0,0,1,1926.6843211956566,299.66666666666663) translate(14.566666666666663 21.444444444444443)"/><path d="M1561.24 340h114v40h-114z" fill-opacity="0"/><path d="M1675.24 340h85v40h-85zM1760.24 340h81v40h-81zM1841.24 340h81v40h-81zM1922.24 340h80.1v40h-80.1z" fill="#e3fae3"/><path d="M1561.24 340v40M1675.24 340v40M1760.24 340v40M1841.24 340v40M1922.24 340v40M2002.34 340v40M1561.24 340h114M1561.24 380h114M1675.24 340h85M1675.24 380h85M1760.24 340h81M1760.24 380h81M1841.24 340h81M1841.24 380h81M1922.24 340h80.1M1922.24 380h80.1" stroke="#282c33" stroke-width="2" fill="none"/><use xlink:href="#D" transform="matrix(1,0,0,1,1566.2444444444445,345) translate(5.477777777777774 21.444444444444443)"/><use xlink:href="#E" transform="matrix(1,0,0,1,1566.2444444444445,345) translate(57.87777777777777 21.444444444444443)"/><use xlink:href="#n" transform="matrix(1,0,0,1,1680.2444444444445,345) translate(29.477777777777778 21.444444444444443)"/><use xlink:href="#o" transform="matrix(1,0,0,1,1765.2444444444445,345) translate(8.05555555555555 21.444444444444443)"/><use xlink:href="#l" transform="matrix(1,0,0,1,1846.2444444444445,345) translate(7.922222222222224 21.444444444444443)"/><use xlink:href="#p" transform="matrix(1,0,0,1,1927.2444444444445,345) translate(2.55555555555555 21.444444444444443)"/><path d="M1561.24 385.33h114v40h-114z" fill-opacity="0"/><path d="M1675.24 385.33h85v40h-85zM1760.24 385.33h80.1v40h-80.1zM1840.34 385.33h81.34v40h-81.34zM1921.68 385.33h80.1v40h-80.1z" fill="#e3fae3"/><path d="M1561.24 385.33v40M1675.24 385.33v40M1760.24 385.33v40M1840.34 385.33v40M1921.68 385.33v40M2001.78 385.33v40M1561.24 385.33h114M1561.24 425.33h114M1675.24 385.33h85M1675.24 425.33h85M1760.24 385.33h80.1M1760.24 425.33h80.1M1840.34 385.33h81.34M1840.34 425.33h81.34M1921.68 385.33h80.1M1921.68 425.33h80.1" stroke="#282c33" stroke-width="2" fill="none"/><use xlink:href="#D" transform="matrix(1,0,0,1,1566.2444444444445,390.33333333333337) translate(5.477777777777774 21.444444444444443)"/><use xlink:href="#E" transform="matrix(1,0,0,1,1566.2444444444445,390.33333333333337) translate(57.87777777777777 21.444444444444443)"/><use xlink:href="#j" transform="matrix(1,0,0,1,1680.2444444444445,390.33333333333337) translate(30.08888888888889 21.444444444444443)"/><use xlink:href="#q" transform="matrix(1,0,0,1,1765.2444444444445,390.33333333333337) translate(7.833333333333329 21.444444444444443)"/><use xlink:href="#r" transform="matrix(1,0,0,1,1845.3414064489048,390.33333333333337) translate(0.3777777777777729 21.444444444444443)"/><use xlink:href="#p" transform="matrix(1,0,0,1,1926.6843211956566,390.33333333333337) translate(2.55555555555555 21.444444444444443)"/><path d="M1561.8 430.67h114v40h-114z" fill-opacity="0"/><path d="M1675.8 430.67h85v40h-85zM1760.8 430.67h80.1v40h-80.1zM1840.9 430.67h81.34v40h-81.34zM1922.24 430.67h80.1v40h-80.1z" fill="#e3fae3"/><path d="M1561.8 430.67v40M1675.8 430.67v40M1760.8 430.67v40M1840.9 430.67v40M1922.24 430.67v40M2002.34 430.67v40M1561.8 430.67h114M1561.8 470.67h114M1675.8 430.67h85M1675.8 470.67h85M1760.8 430.67h80.1M1760.8 470.67h80.1M1840.9 430.67h81.34M1840.9 470.67h81.34M1922.24 430.67h80.1M1922.24 470.67h80.1" stroke="#282c33" stroke-width="2" fill="none"/><use xlink:href="#D" transform="matrix(1,0,0,1,1566.8045676932325,435.66666666666674) translate(5.477777777777774 21.444444444444443)"/><use xlink:href="#E" transform="matrix(1,0,0,1,1566.8045676932325,435.66666666666674) translate(57.87777777777777 21.444444444444443)"/><use xlink:href="#s" transform="matrix(1,0,0,1,1680.8045676932325,435.66666666666674) translate(30.788888888888888 21.444444444444443)"/><use xlink:href="#t" transform="matrix(1,0,0,1,1765.8045676932325,435.66666666666674) translate(7.566666666666663 21.444444444444443)"/><use xlink:href="#u" transform="matrix(1,0,0,1,1845.9015296976927,435.66666666666674) translate(18.055555555555557 21.444444444444443)"/><use xlink:href="#m" transform="matrix(1,0,0,1,1927.2444444444445,435.66666666666674) translate(14.566666666666663 21.444444444444443)"/><path d="M1561.8 476h114v40h-114z" fill-opacity="0"/><path d="M1675.8 476h85v40h-85zM1760.8 476h80.1v40h-80.1zM1840.9 476h81.34v40h-81.34zM1922.24 476h80.1v40h-80.1z" fill="#e3fae3"/><path d="M1561.8 476v40M1675.8 476v40M1760.8 476v40M1840.9 476v40M1922.24 476v40M2002.34 476v40M1561.8 476h114M1561.8 516h114M1675.8 476h85M1675.8 516h85M1760.8 476h80.1M1760.8 516h80.1M1840.9 476h81.34M1840.9 516h81.34M1922.24 476h80.1M1922.24 516h80.1" stroke="#282c33" stroke-width="2" fill="none"/><g><use xlink:href="#D" transform="matrix(1,0,0,1,1566.8045676932327,481.0000000000001) translate(5.477777777777774 21.444444444444443)"/><use xlink:href="#E" transform="matrix(1,0,0,1,1566.8045676932327,481.0000000000001) translate(57.87777777777777 21.444444444444443)"/></g><g><use xlink:href="#v" transform="matrix(1,0,0,1,1680.8045676932327,481.0000000000001) translate(30.08888888888889 21.444444444444443)"/></g><g><use xlink:href="#w" transform="matrix(1,0,0,1,1765.8045676932327,481.0000000000001) translate(6.722222222222218 21.444444444444443)"/></g><g><use xlink:href="#x" transform="matrix(1,0,0,1,1845.901529697693,481.0000000000001) translate(11.43333333333333 21.444444444444443)"/></g><g><use xlink:href="#y" transform="matrix(1,0,0,1,1927.2444444444448,481.0000000000001) translate(12.555555555555557 21.444444444444443)"/></g><path d="M800 226a6 6 0 0 1 6-6h228a6 6 0 0 1 6 6v48a6 6 0 0 1-6 6H806a6 6 0 0 1-6-6z" stroke="#000" stroke-opacity="0" stroke-width="2" fill="#fff" fill-opacity="0"/><g><use xlink:href="#F" transform="matrix(1,0,0,1,805,225) translate(81.11666666666667 34.37499999999999)"/></g><path d="M1200.62 226a6 6 0 0 1 6-6h228a6 6 0 0 1 6 6v48a6 6 0 0 1-6 6h-228a6 6 0 0 1-6-6z" stroke="#000" stroke-opacity="0" stroke-width="2" fill="#fff" fill-opacity="0"/><g><use xlink:href="#G" transform="matrix(1,0,0,1,1205.6222222222223,225) translate(28.46666666666671 34.37499999999999)"/></g><path d="M1660 226a6 6 0 0 1 6-6h228a6 6 0 0 1 6 6v48a6 6 0 0 1-6 6h-228a6 6 0 0 1-6-6z" stroke="#000" stroke-opacity="0" stroke-width="2" fill="#fff" fill-opacity="0"/><g><use xlink:href="#H" transform="matrix(1,0,0,1,1665,225.00000000000003) translate(53.366666666666696 34.37499999999999)"/></g><defs><path fill="#3a414a" d="M201-53c-3 30-25 53-55 53S93-24 93-53v-394c0-56 83-72 102-22 136-88 315 25 315 177v239c0 29-23 53-52 53-28 0-53-24-53-53v-239c0-56-47-101-104-101-56 0-100 45-100 101v239" id="I"/><path fill="#3a414a" d="M543-268c2 34-20 53-53 54H172c12 96 151 149 234 86 53-40 121 14 75 62S373 0 302 0C165-1 58-114 58-250s107-250 244-250c130 0 233 97 241 232zM302-405c-85 0-127 65-135 106h283c-10-40-61-106-148-106" id="J"/><path fill="#3a414a" d="M571-32c-11 40-79 39-96 0l-73-173c-26 60-49 123-76 182-17 35-78 24-92-9L70-420c-29-59 66-105 95-39l118 269 70-167c16-42 80-41 98 0l71 167 118-269c22-68 122-22 96 39" id="K"/><g id="a"><use transform="matrix(0.022222222222222223,0,0,0.022222222222222223,0,0)" xlink:href="#I"/><use transform="matrix(0.022222222222222223,0,0,0.022222222222222223,13.622222222222224,0)" xlink:href="#J"/><use transform="matrix(0.022222222222222223,0,0,0.022222222222222223,26.6,0)" xlink:href="#K"/></g><path fill="#3a414a" d="M187-360c0 139 116 246 253 246 62 0 116-20 161-55 23-18 61-14 80 11 19 24 14 61-10 80C608-29 528 0 440 0 240 0 73-161 73-360c0-198 167-359 367-360 88 0 168 28 231 78 24 19 29 55 10 80s-57 29-80 11c-44-36-99-55-161-55-137-1-253 109-253 246" id="L"/><path fill="#3a414a" d="M40-249c0-137 103-250 238-251 50 0 95 17 133 44 6-25 26-44 52-44 29 0 53 24 53 54v393c0 29-24 53-53 53-26 0-46-19-52-43-38 27-83 43-133 43C142 1 40-113 40-249zm238 142c76 0 132-64 132-142 0-80-57-144-132-144-76 0-131 64-131 144 0 79 54 142 131 142" id="M"/><path fill="#3a414a" d="M201-440c32-36 85-59 147-59 30 0 53 23 53 52 0 28-23 53-53 53-84 0-129 100-147 151v190c0 29-25 53-55 53-29 0-53-24-53-53v-394c0-29 24-52 53-52 32 1 58 25 55 59" id="N"/><path fill="#3a414a" d="M310 94C117 94 71-108 71-306c0-157 30-285 120-360 51-42 182-69 182 23 0 35-28 64-63 64-47 0-58 23-77 62-55 111-51 403 35 471 12 9 23 14 42 14 35 0 63 28 63 63s-28 63-63 63" id="O"/><path fill="#3a414a" d="M615-393c-58 0-103 46-104 103v237c0 29-24 53-53 53-28 0-54-24-54-53v-240c0-55-47-100-103-100-55 0-101 46-101 103-1 82 5 167-1 247-2 27-32 48-63 42-24-5-43-26-43-52v-393c0-57 82-74 101-24 86-54 207-31 264 39 37-43 94-69 157-69 115 0 208 94 208 210v237c0 29-24 53-53 53s-54-24-54-53v-237c0-57-46-103-101-103" id="P"/><path fill="#3a414a" d="M311 3C176 3 70-110 70-249c0-134 107-252 241-251 132 0 237 120 237 251C548-112 444 3 311 3zm0-394c-79 0-132 61-132 142 0 82 51 143 132 143 77 0 131-64 131-143 0-78-56-142-131-142" id="Q"/><path fill="#3a414a" d="M546-54c0 29-24 54-54 54-27 0-48-19-53-43-38 26-86 43-136 43C168 0 60-114 60-249c0-189 216-323 377-209v-188c0-29 24-54 55-54 30 0 54 25 54 54v592zM437-249c0-77-59-142-134-142-74 0-134 65-134 142 0 75 61 140 134 140 74 0 134-65 134-140" id="R"/><path fill="#3a414a" d="M100-645c0-30 25-55 55-55 31 0 56 25 56 55v590c0 30-25 55-56 55-30 0-55-25-55-55v-590" id="S"/><path fill="#3a414a" d="M228-55c0 117-54 192-143 200-39 4-39-47-8-55 47-12 70-46 68-90-31-9-57-34-57-76 0-38 27-67 68-67 45 0 72 34 72 88" id="T"/><g id="b"><use transform="matrix(0.022222222222222223,0,0,0.022222222222222223,0,0)" xlink:href="#L"/><use transform="matrix(0.022222222222222223,0,0,0.022222222222222223,17.133333333333333,0)" xlink:href="#M"/><use transform="matrix(0.022222222222222223,0,0,0.022222222222222223,30.88888888888889,0)" xlink:href="#N"/><use transform="matrix(0.022222222222222223,0,0,0.022222222222222223,40.644444444444446,0)" xlink:href="#O"/><use transform="matrix(0.022222222222222223,0,0,0.022222222222222223,50.2,0)" xlink:href="#P"/><use transform="matrix(0.022222222222222223,0,0,0.022222222222222223,71.33333333333334,0)" xlink:href="#Q"/><use transform="matrix(0.022222222222222223,0,0,0.022222222222222223,85.22222222222223,0)" xlink:href="#R"/><use transform="matrix(0.022222222222222223,0,0,0.022222222222222223,99.55555555555559,0)" xlink:href="#J"/><use transform="matrix(0.022222222222222223,0,0,0.022222222222222223,113.08888888888889,0)" xlink:href="#S"/><use transform="matrix(0.022222222222222223,0,0,0.022222222222222223,118.62222222222222,0)" xlink:href="#T"/></g><path fill="#3a414a" d="M416-500c29 0 54 23 54 53v378c0 170-179 293-342 214-27-13-39-44-26-71 12-25 47-35 71-22 77 38 163-8 183-77C214 50 52-63 52-211v-236c0-30 25-53 52-53 31 0 53 23 53 53v236c0 58 47 102 104 102s103-44 103-102v-236c0-30 22-53 52-53" id="U"/><g id="c"><use transform="matrix(0.022222222222222223,0,0,0.022222222222222223,0,0)" xlink:href="#U"/><use transform="matrix(0.022222222222222223,0,0,0.022222222222222223,12.4,0)" xlink:href="#J"/><use transform="matrix(0.022222222222222223,0,0,0.022222222222222223,25.933333333333334,0)" xlink:href="#M"/><use transform="matrix(0.022222222222222223,0,0,0.022222222222222223,39.68888888888889,0)" xlink:href="#N"/><use transform="matrix(0.022222222222222223,0,0,0.022222222222222223,47.44444444444444,0)" xlink:href="#T"/></g><path fill="#3a414a" d="M93-54v-592c0-29 24-54 54-54 31 0 55 25 55 54v188c160-114 377 20 377 209C579-61 360 72 200-43c-5 24-26 43-53 43-30 0-54-25-54-54zm243-337c-75 0-134 65-134 142 0 75 60 140 134 140 73 0 134-65 134-140 0-77-60-142-134-142" id="V"/><g id="d"><use transform="matrix(0.022222222222222223,0,0,0.022222222222222223,0,0)" xlink:href="#V"/><use transform="matrix(0.022222222222222223,0,0,0.022222222222222223,14.666666666666668,0)" xlink:href="#N"/><use transform="matrix(0.022222222222222223,0,0,0.022222222222222223,23.866666666666667,0)" xlink:href="#M"/><use transform="matrix(0.022222222222222223,0,0,0.022222222222222223,37.400000000000006,0)" xlink:href="#I"/><use transform="matrix(0.022222222222222223,0,0,0.022222222222222223,50.57777777777778,0)" xlink:href="#R"/><use transform="matrix(0.022222222222222223,0,0,0.022222222222222223,65.24444444444445,0)" xlink:href="#T"/></g><path fill="#3a414a" d="M58-249c0-139 116-250 254-251 60 0 116 22 159 55 23 18 28 53 11 74-19 25-53 29-75 10-91-76-243-4-243 112S315-62 407-138c21-18 56-14 75 11 17 21 13 55-11 74-42 32-99 53-159 53C174 0 58-112 58-249" id="W"/><path fill="#3a414a" d="M337-512c55 237 40 606-214 606-35 0-63-28-63-63s28-63 63-63c61 0 71-37 92-103 39-127 30-368-50-431-12-9-23-13-42-13-35 0-63-29-63-64 0-92 132-65 182-23 47 40 81 92 95 154" id="X"/><g id="e"><use transform="matrix(0.022222222222222223,0,0,0.022222222222222223,0,0)" xlink:href="#W"/><use transform="matrix(0.022222222222222223,0,0,0.022222222222222223,12.355555555555556,0)" xlink:href="#Q"/><use transform="matrix(0.022222222222222223,0,0,0.022222222222222223,26.244444444444447,0)" xlink:href="#S"/><use transform="matrix(0.022222222222222223,0,0,0.022222222222222223,31.77777777777778,0)" xlink:href="#Q"/><use transform="matrix(0.022222222222222223,0,0,0.022222222222222223,45.22222222222223,0)" xlink:href="#N"/><use transform="matrix(0.022222222222222223,0,0,0.022222222222222223,54.97777777777779,0)" xlink:href="#X"/></g><path d="M615-393c-58 0-103 46-104 103v237c0 29-24 53-53 53-28 0-54-24-54-53v-240c0-55-47-100-103-100-55 0-101 46-101 103-1 82 5 167-1 247-2 27-32 48-63 42-24-5-43-26-43-52v-393c0-57 82-74 101-24 86-54 207-31 264 39 37-43 94-69 157-69 115 0 208 94 208 210v237c0 29-24 53-53 53s-54-24-54-53v-237c0-57-46-103-101-103" id="Y"/><path d="M311 3C176 3 70-110 70-249c0-134 107-252 241-251 132 0 237 120 237 251C548-112 444 3 311 3zm0-394c-79 0-132 61-132 142 0 82 51 143 132 143 77 0 131-64 131-143 0-78-56-142-131-142" id="Z"/><path d="M546-54c0 29-24 54-54 54-27 0-48-19-53-43-38 26-86 43-136 43C168 0 60-114 60-249c0-189 216-323 377-209v-188c0-29 24-54 55-54 30 0 54 25 54 54v592zM437-249c0-77-59-142-134-142-74 0-134 65-134 142 0 75 61 140 134 140 74 0 134-65 134-140" id="aa"/><path d="M543-268c2 34-20 53-53 54H172c12 96 151 149 234 86 53-40 121 14 75 62S373 0 302 0C165-1 58-114 58-250s107-250 244-250c130 0 233 97 241 232zM302-405c-85 0-127 65-135 106h283c-10-40-61-106-148-106" id="ab"/><path d="M100-645c0-30 25-55 55-55 31 0 56 25 56 55v590c0 30-25 55-56 55-30 0-55-25-55-55v-590" id="ac"/><g id="f"><use transform="matrix(0.022222222222222223,0,0,0.022222222222222223,0,0)" xlink:href="#Y"/><use transform="matrix(0.022222222222222223,0,0,0.022222222222222223,21.133333333333333,0)" xlink:href="#Z"/><use transform="matrix(0.022222222222222223,0,0,0.022222222222222223,35.022222222222226,0)" xlink:href="#aa"/><use transform="matrix(0.022222222222222223,0,0,0.022222222222222223,49.355555555555554,0)" xlink:href="#ab"/><use transform="matrix(0.022222222222222223,0,0,0.022222222222222223,62.88888888888888,0)" xlink:href="#ac"/></g><path d="M416-500c29 0 54 23 54 53v378c0 170-179 293-342 214-27-13-39-44-26-71 12-25 47-35 71-22 77 38 163-8 183-77C214 50 52-63 52-211v-236c0-30 25-53 52-53 31 0 53 23 53 53v236c0 58 47 102 104 102s103-44 103-102v-236c0-30 22-53 52-53" id="ad"/><path d="M40-249c0-137 103-250 238-251 50 0 95 17 133 44 6-25 26-44 52-44 29 0 53 24 53 54v393c0 29-24 53-53 53-26 0-46-19-52-43-38 27-83 43-133 43C142 1 40-113 40-249zm238 142c76 0 132-64 132-142 0-80-57-144-132-144-76 0-131 64-131 144 0 79 54 142 131 142" id="ae"/><path d="M201-440c32-36 85-59 147-59 30 0 53 23 53 52 0 28-23 53-53 53-84 0-129 100-147 151v190c0 29-25 53-55 53-29 0-53-24-53-53v-394c0-29 24-52 53-52 32 1 58 25 55 59" id="af"/><g id="g"><use transform="matrix(0.022222222222222223,0,0,0.022222222222222223,0,0)" xlink:href="#ad"/><use transform="matrix(0.022222222222222223,0,0,0.022222222222222223,12.4,0)" xlink:href="#ab"/><use transform="matrix(0.022222222222222223,0,0,0.022222222222222223,25.933333333333334,0)" xlink:href="#ae"/><use transform="matrix(0.022222222222222223,0,0,0.022222222222222223,39.68888888888889,0)" xlink:href="#af"/></g><path d="M93-54v-592c0-29 24-54 54-54 31 0 55 25 55 54v188c160-114 377 20 377 209C579-61 360 72 200-43c-5 24-26 43-53 43-30 0-54-25-54-54zm243-337c-75 0-134 65-134 142 0 75 60 140 134 140 73 0 134-65 134-140 0-77-60-142-134-142" id="ag"/><path d="M201-53c-3 30-25 53-55 53S93-24 93-53v-394c0-56 83-72 102-22 136-88 315 25 315 177v239c0 29-23 53-52 53-28 0-53-24-53-53v-239c0-56-47-101-104-101-56 0-100 45-100 101v239" id="ah"/><g id="h"><use transform="matrix(0.022222222222222223,0,0,0.022222222222222223,0,0)" xlink:href="#ag"/><use transform="matrix(0.022222222222222223,0,0,0.022222222222222223,14.666666666666668,0)" xlink:href="#af"/><use transform="matrix(0.022222222222222223,0,0,0.022222222222222223,23.866666666666667,0)" xlink:href="#ae"/><use transform="matrix(0.022222222222222223,0,0,0.022222222222222223,37.400000000000006,0)" xlink:href="#ah"/><use transform="matrix(0.022222222222222223,0,0,0.022222222222222223,50.57777777777778,0)" xlink:href="#aa"/></g><path d="M58-249c0-139 116-250 254-251 60 0 116 22 159 55 23 18 28 53 11 74-19 25-53 29-75 10-91-76-243-4-243 112S315-62 407-138c21-18 56-14 75 11 17 21 13 55-11 74-42 32-99 53-159 53C174 0 58-112 58-249" id="ai"/><g id="i"><use transform="matrix(0.022222222222222223,0,0,0.022222222222222223,0,0)" xlink:href="#ai"/><use transform="matrix(0.022222222222222223,0,0,0.022222222222222223,12.355555555555556,0)" xlink:href="#Z"/><use transform="matrix(0.022222222222222223,0,0,0.022222222222222223,26.244444444444447,0)" xlink:href="#ac"/><use transform="matrix(0.022222222222222223,0,0,0.022222222222222223,31.77777777777778,0)" xlink:href="#Z"/><use transform="matrix(0.022222222222222223,0,0,0.022222222222222223,45.22222222222223,0)" xlink:href="#af"/></g><path d="M201-493c47 71 210 68 292 112 63 33 124 78 124 168C617-82 484-1 346-1 238-1 147-56 90-101c-22-18-25-51-8-73 18-22 51-25 73-7 44 36 120 77 191 77 89 0 201-58 159-141-40-79-211-71-298-116-58-30-116-76-116-160 0-123 125-200 253-199 96 0 167 48 218 80 56 35-2 124-57 86-50-35-100-64-161-64-79-1-172 48-143 125" id="aj"/><use transform="matrix(0.022222222222222223,0,0,0.022222222222222223,0,0)" xlink:href="#aj" id="j"/><path d="M277-700c122 0 240 113 240 240 0 65-27 131-79 178L249-111h213c31 0 55 25 55 56S493 0 462 0H106C61 0 30-61 68-96l296-268c91-75 22-225-87-225-48 0-90 34-118 61-22 22-57 19-78-4-38-41 11-86 35-106 47-39 104-62 161-62" id="ak"/><path d="M319 0C71 0-1-398 133-589c44-63 107-111 186-111 246 0 318 398 185 589C461-49 396 0 319 0zm-95-173c109 153 236-20 236-177 0-159-127-330-236-178-59 82-59 272 0 355" id="al"/><path d="M188-692c40-21 84 4 85 47v590c0 31-26 55-56 55-31 0-55-24-55-55v-492c-30 23-87 51-115 3-15-26-8-60 18-75" id="am"/><g id="k"><use transform="matrix(0.022222222222222223,0,0,0.022222222222222223,0,0)" xlink:href="#ak"/><use transform="matrix(0.022222222222222223,0,0,0.022222222222222223,13.111111111111112,0)" xlink:href="#al"/><use transform="matrix(0.022222222222222223,0,0,0.022222222222222223,28.66666666666667,0)" xlink:href="#ak"/><use transform="matrix(0.022222222222222223,0,0,0.022222222222222223,41.777777777777786,0)" xlink:href="#am"/></g><path d="M587-645c0 30-25 56-55 56H373v534c0 31-24 55-55 55-30 0-55-24-55-55v-534H105c-31 0-55-26-55-56 0-31 24-55 55-55h427c30 0 55 24 55 55" id="an"/><path d="M252-500c69 0 118 33 150 55 24 16 32 49 16 74-15 24-50 32-74 14-45-34-105-52-152-19-21 15-21 29-3 41 37 24 123 31 168 54 43 21 90 63 90 125C447-59 353 0 254 0 176 0 116-37 76-69c-22-18-25-52-7-74 18-24 54-28 75-8 41 37 126 64 178 25 24-18 24-36 2-52-34-24-125-32-168-54-41-21-87-58-86-121 1-91 89-148 182-147" id="ao"/><g id="l"><use transform="matrix(0.022222222222222223,0,0,0.022222222222222223,0,0)" xlink:href="#an"/><use transform="matrix(0.022222222222222223,0,0,0.022222222222222223,11.4,0)" xlink:href="#ab"/><use transform="matrix(0.022222222222222223,0,0,0.022222222222222223,24.933333333333334,0)" xlink:href="#ao"/><use transform="matrix(0.022222222222222223,0,0,0.022222222222222223,35.86666666666667,0)" xlink:href="#ac"/><use transform="matrix(0.022222222222222223,0,0,0.022222222222222223,41.4,0)" xlink:href="#ae"/></g><path d="M460-321c38 29 68 82 68 145 0 30 2 49 4 59 48 11 51 90 0 104-4 1-13 4-23 3-77-10-92-73-92-166 0-59-61-85-98-96H201v217c0 30-25 55-56 55S90-25 90-55v-590c0-31 24-55 56-55h178c119 0 214 96 214 215 0 66-30 124-78 164zm-136-62c57 0 103-46 103-102 0-58-46-104-103-104H201v206h123" id="ap"/><g id="m"><use transform="matrix(0.022222222222222223,0,0,0.022222222222222223,0,0)" xlink:href="#ap"/><use transform="matrix(0.022222222222222223,0,0,0.022222222222222223,13.666666666666668,0)" xlink:href="#ab"/><use transform="matrix(0.022222222222222223,0,0,0.022222222222222223,27.2,0)" xlink:href="#aa"/></g><path d="M516-669c38-60 131 6 89 64L415-347 605-87c43 55-46 123-89 64L348-254 179-23c-17 24-51 30-76 12-24-18-30-52-13-76l190-260L90-605c-43-55 47-122 89-64l169 230" id="aq"/><use transform="matrix(0.022222222222222223,0,0,0.022222222222222223,0,0)" xlink:href="#aq" id="n"/><g id="o"><use transform="matrix(0.022222222222222223,0,0,0.022222222222222223,0,0)" xlink:href="#ak"/><use transform="matrix(0.022222222222222223,0,0,0.022222222222222223,13.111111111111112,0)" xlink:href="#al"/><use transform="matrix(0.022222222222222223,0,0,0.022222222222222223,28.66666666666667,0)" xlink:href="#ak"/><use transform="matrix(0.022222222222222223,0,0,0.022222222222222223,41.777777777777786,0)" xlink:href="#ak"/></g><path d="M407-18c-21 32-85 16-90-16L71-617c-30-63 73-107 101-42l196 463 129-307c18-45 85-45 104 0l129 307 195-463c12-28 44-41 73-29 27 11 40 44 28 71-84 197-166 397-251 593-13 30-76 32-89 0-4-1-4-6-6-10L549-344c-46 106-90 214-136 320" id="ar"/><path d="M148 0c-29 0-55-22-55-55v-590c0-31 25-55 55-55 31 0 56 24 56 55v174c146-85 325 31 325 190v226c0 31-24 55-55 55s-55-24-55-55v-226c0-59-48-108-108-108-59 0-107 49-107 108v226c0 31-25 55-56 55" id="as"/><path d="M148-499c31 0 54 23 54 55v390c0 30-23 54-54 54-30 0-54-24-54-54v-390c0-32 24-55 54-55zm0-201c38 0 54 31 54 75 0 30-23 55-54 55-37 0-54-32-54-76 0-30 24-54 54-54" id="at"/><path d="M237-500c46-6 81 15 81 55 0 39-35 61-81 55v279c31 0 55 25 55 56S268 0 237 0c-61 0-111-50-111-111v-279c-49 7-84-14-84-55 0-42 35-61 84-55 8-77-29-200 56-200 84 0 47 123 55 200" id="au"/><g id="p"><use transform="matrix(0.022222222222222223,0,0,0.022222222222222223,0,0)" xlink:href="#ar"/><use transform="matrix(0.022222222222222223,0,0,0.022222222222222223,24.48888888888889,0)" xlink:href="#as"/><use transform="matrix(0.022222222222222223,0,0,0.022222222222222223,38.111111111111114,0)" xlink:href="#at"/><use transform="matrix(0.022222222222222223,0,0,0.022222222222222223,44.35555555555556,0)" xlink:href="#au"/><use transform="matrix(0.022222222222222223,0,0,0.022222222222222223,52.35555555555557,0)" xlink:href="#ab"/></g><path d="M404-250c0-70-65-140-135-135-43 3-82-61-44-99l102-104c-82-10-218 33-218-57 0-31 25-56 56-56h295c50-3 74 62 40 97L374-474c79 32 143 131 143 224C517-122 397-1 268-1 205-1 141-26 93-74c-22-22-22-58 0-80s59-23 80 0c82 88 231 16 231-96" id="av"/><g id="q"><use transform="matrix(0.022222222222222223,0,0,0.022222222222222223,0,0)" xlink:href="#ak"/><use transform="matrix(0.022222222222222223,0,0,0.022222222222222223,13.111111111111112,0)" xlink:href="#al"/><use transform="matrix(0.022222222222222223,0,0,0.022222222222222223,28.66666666666667,0)" xlink:href="#ak"/><use transform="matrix(0.022222222222222223,0,0,0.022222222222222223,41.777777777777786,0)" xlink:href="#av"/></g><path d="M159 0c-31 0-55-24-55-55v-590c0-31 24-55 55-55s56 24 56 55v240h259v-240c0-31 24-55 55-55s56 24 56 55v590c0 31-25 55-56 55s-55-24-55-55v-240H215v240c0 31-25 55-56 55" id="aw"/><g id="r"><use transform="matrix(0.022222222222222223,0,0,0.022222222222222223,0,0)" xlink:href="#aw"/><use transform="matrix(0.022222222222222223,0,0,0.022222222222222223,15.755555555555556,0)" xlink:href="#Z"/><use transform="matrix(0.022222222222222223,0,0,0.022222222222222223,29.644444444444446,0)" xlink:href="#ah"/><use transform="matrix(0.022222222222222223,0,0,0.022222222222222223,42.82222222222222,0)" xlink:href="#aa"/><use transform="matrix(0.022222222222222223,0,0,0.022222222222222223,57.488888888888894,0)" xlink:href="#ae"/></g><path d="M579-682c24 18 29 52 12 76L386-325v270c0 31-24 55-55 55-29 0-55-24-55-55v-270L73-606c-19-24-14-58 11-76s58-12 76 12l171 234 171-234c19-25 53-30 77-12" id="ax"/><use transform="matrix(0.022222222222222223,0,0,0.022222222222222223,0,0)" xlink:href="#ax" id="s"/><path d="M436-680c30-37 98-17 98 35v404c38-4 66 22 66 55 0 34-28 59-66 55 2 63 7 131-55 131s-57-68-55-131H109c-42 0-72-53-43-89zm-12 439v-247L225-241h199" id="ay"/><g id="t"><use transform="matrix(0.022222222222222223,0,0,0.022222222222222223,0,0)" xlink:href="#ak"/><use transform="matrix(0.022222222222222223,0,0,0.022222222222222223,13.111111111111112,0)" xlink:href="#al"/><use transform="matrix(0.022222222222222223,0,0,0.022222222222222223,28.66666666666667,0)" xlink:href="#ak"/><use transform="matrix(0.022222222222222223,0,0,0.022222222222222223,41.111111111111114,0)" xlink:href="#ay"/></g><path d="M159 0c-31 0-55-25-55-55v-585c0-29 24-55 55-55s55 26 55 55v287l324-325c22-22 56-22 78 0 21 21 21 56 0 78L396-381 618-90c46 50-39 128-84 70L318-303 214-197c-8 77 28 195-55 197" id="az"/><g id="u"><use transform="matrix(0.022222222222222223,0,0,0.022222222222222223,0,0)" xlink:href="#az"/><use transform="matrix(0.022222222222222223,0,0,0.022222222222222223,15.88888888888889,0)" xlink:href="#at"/><use transform="matrix(0.022222222222222223,0,0,0.022222222222222223,22.133333333333333,0)" xlink:href="#ae"/></g><path d="M126 0C82 1 57-51 82-87l367-502H126c-31 0-55-26-55-56 0-31 24-55 55-55 149 1 303-3 449 2 31 9 52 54 28 86L235-111h322c31 0 56 25 56 56S588 0 557 0H126" id="aA"/><use transform="matrix(0.022222222222222223,0,0,0.022222222222222223,0,0)" xlink:href="#aA" id="v"/><g id="w"><use transform="matrix(0.022222222222222223,0,0,0.022222222222222223,0,0)" xlink:href="#ak"/><use transform="matrix(0.022222222222222223,0,0,0.022222222222222223,13.111111111111112,0)" xlink:href="#al"/><use transform="matrix(0.022222222222222223,0,0,0.022222222222222223,28.66666666666667,0)" xlink:href="#ak"/><use transform="matrix(0.022222222222222223,0,0,0.022222222222222223,41.777777777777786,0)" xlink:href="#al"/></g><path d="M159 0c-31 0-55-25-55-55v-590c0-31 25-55 58-55h324c29 0 55 25 55 55 0 31-26 56-55 56H215v183h233c30 0 55 26 55 55 0 31-25 56-55 56H215v240c0 30-25 55-56 55" id="aB"/><g id="x"><use transform="matrix(0.022222222222222223,0,0,0.022222222222222223,0,0)" xlink:href="#aB"/><use transform="matrix(0.022222222222222223,0,0,0.022222222222222223,11.822222222222223,0)" xlink:href="#Z"/><use transform="matrix(0.022222222222222223,0,0,0.022222222222222223,25.26666666666667,0)" xlink:href="#af"/><use transform="matrix(0.022222222222222223,0,0,0.022222222222222223,34.46666666666667,0)" xlink:href="#aa"/></g><path d="M163 0c-30 2-60-23-59-55v-590c1-83 119-50 197-55 150-10 247 184 152 304 60 38 101 105 101 181C554-96 458 0 340 0H163zm52-589v160h86c44 0 79-37 79-81s-35-79-79-79h-86zm0 271v207h125c57-1 103-46 103-104 0-57-46-103-103-103H215" id="aC"/><path d="M502-208C502-94 406 0 291 0 177 0 83-94 83-208v-239c0-28 24-53 53-53 30 0 53 25 53 53v239c0 57 45 102 102 102 58 0 105-45 105-102v-239c0-28 22-53 52-53 28 0 54 25 54 53v239" id="aD"/><g id="y"><use transform="matrix(0.022222222222222223,0,0,0.022222222222222223,0,0)" xlink:href="#aC"/><use transform="matrix(0.022222222222222223,0,0,0.022222222222222223,13.200000000000001,0)" xlink:href="#ac"/><use transform="matrix(0.022222222222222223,0,0,0.022222222222222223,18.733333333333334,0)" xlink:href="#aD"/><use transform="matrix(0.022222222222222223,0,0,0.022222222222222223,32.355555555555554,0)" xlink:href="#ab"/></g><path fill="#3a414a" d="M69-433l18-214c3-47 41-56 96-56 28 0 39 27 30 55l-73 222c-7 42-75 41-71-7" id="aE"/><path fill="#3a414a" d="M201-493c47 71 210 68 292 112 63 33 124 78 124 168C617-82 484-1 346-1 238-1 147-56 90-101c-22-18-25-51-8-73 18-22 51-25 73-7 44 36 120 77 191 77 89 0 201-58 159-141-40-79-211-71-298-116-58-30-116-76-116-160 0-123 125-200 253-199 96 0 167 48 218 80 56 35-2 124-57 86-50-35-100-64-161-64-79-1-172 48-143 125" id="aF"/><g id="z"><use transform="matrix(0.022222222222222223,0,0,0.022222222222222223,0,0)" xlink:href="#L"/><use transform="matrix(0.022222222222222223,0,0,0.022222222222222223,17.133333333333333,0)" xlink:href="#M"/><use transform="matrix(0.022222222222222223,0,0,0.022222222222222223,30.88888888888889,0)" xlink:href="#N"/><use transform="matrix(0.022222222222222223,0,0,0.022222222222222223,40.644444444444446,0)" xlink:href="#O"/><use transform="matrix(0.022222222222222223,0,0,0.022222222222222223,50.2,0)" xlink:href="#aE"/><use transform="matrix(0.022222222222222223,0,0,0.022222222222222223,55.31111111111111,0)" xlink:href="#aF"/><use transform="matrix(0.022222222222222223,0,0,0.022222222222222223,70.13333333333334,0)" xlink:href="#aE"/><use transform="matrix(0.022222222222222223,0,0,0.022222222222222223,75.24444444444445,0)" xlink:href="#T"/></g><path fill="#3a414a" d="M277-700c122 0 240 113 240 240 0 65-27 131-79 178L249-111h213c31 0 55 25 55 56S493 0 462 0H106C61 0 30-61 68-96l296-268c91-75 22-225-87-225-48 0-90 34-118 61-22 22-57 19-78-4-38-41 11-86 35-106 47-39 104-62 161-62" id="aG"/><path fill="#3a414a" d="M319 0C71 0-1-398 133-589c44-63 107-111 186-111 246 0 318 398 185 589C461-49 396 0 319 0zm-95-173c109 153 236-20 236-177 0-159-127-330-236-178-59 82-59 272 0 355" id="aH"/><path fill="#3a414a" d="M188-692c40-21 84 4 85 47v590c0 31-26 55-56 55-31 0-55-24-55-55v-492c-30 23-87 51-115 3-15-26-8-60 18-75" id="aI"/><g id="A"><use transform="matrix(0.022222222222222223,0,0,0.022222222222222223,0,0)" xlink:href="#aG"/><use transform="matrix(0.022222222222222223,0,0,0.022222222222222223,13.111111111111112,0)" xlink:href="#aH"/><use transform="matrix(0.022222222222222223,0,0,0.022222222222222223,28.66666666666667,0)" xlink:href="#aG"/><use transform="matrix(0.022222222222222223,0,0,0.022222222222222223,41.777777777777786,0)" xlink:href="#aI"/><use transform="matrix(0.022222222222222223,0,0,0.022222222222222223,49.22222222222222,0)" xlink:href="#T"/></g><path fill="#3a414a" d="M587-645c0 30-25 56-55 56H373v534c0 31-24 55-55 55-30 0-55-24-55-55v-534H105c-31 0-55-26-55-56 0-31 24-55 55-55h427c30 0 55 24 55 55" id="aJ"/><path fill="#3a414a" d="M252-500c69 0 118 33 150 55 24 16 32 49 16 74-15 24-50 32-74 14-45-34-105-52-152-19-21 15-21 29-3 41 37 24 123 31 168 54 43 21 90 63 90 125C447-59 353 0 254 0 176 0 116-37 76-69c-22-18-25-52-7-74 18-24 54-28 75-8 41 37 126 64 178 25 24-18 24-36 2-52-34-24-125-32-168-54-41-21-87-58-86-121 1-91 89-148 182-147" id="aK"/><g id="B"><use transform="matrix(0.022222222222222223,0,0,0.022222222222222223,0,0)" xlink:href="#aE"/><use transform="matrix(0.022222222222222223,0,0,0.022222222222222223,5.111111111111112,0)" xlink:href="#aJ"/><use transform="matrix(0.022222222222222223,0,0,0.022222222222222223,16.511111111111113,0)" xlink:href="#J"/><use transform="matrix(0.022222222222222223,0,0,0.022222222222222223,30.044444444444444,0)" xlink:href="#aK"/><use transform="matrix(0.022222222222222223,0,0,0.022222222222222223,40.977777777777774,0)" xlink:href="#S"/><use transform="matrix(0.022222222222222223,0,0,0.022222222222222223,46.511111111111106,0)" xlink:href="#M"/><use transform="matrix(0.022222222222222223,0,0,0.022222222222222223,60.266666666666666,0)" xlink:href="#aE"/><use transform="matrix(0.022222222222222223,0,0,0.022222222222222223,65.37777777777778,0)" xlink:href="#T"/></g><path fill="#3a414a" d="M460-321c38 29 68 82 68 145 0 30 2 49 4 59 48 11 51 90 0 104-4 1-13 4-23 3-77-10-92-73-92-166 0-59-61-85-98-96H201v217c0 30-25 55-56 55S90-25 90-55v-590c0-31 24-55 56-55h178c119 0 214 96 214 215 0 66-30 124-78 164zm-136-62c57 0 103-46 103-102 0-58-46-104-103-104H201v206h123" id="aL"/><g id="C"><use transform="matrix(0.022222222222222223,0,0,0.022222222222222223,0,0)" xlink:href="#aE"/><use transform="matrix(0.022222222222222223,0,0,0.022222222222222223,5.111111111111112,0)" xlink:href="#aL"/><use transform="matrix(0.022222222222222223,0,0,0.022222222222222223,18.77777777777778,0)" xlink:href="#J"/><use transform="matrix(0.022222222222222223,0,0,0.022222222222222223,32.31111111111111,0)" xlink:href="#R"/><use transform="matrix(0.022222222222222223,0,0,0.022222222222222223,46.97777777777777,0)" xlink:href="#aE"/><use transform="matrix(0.022222222222222223,0,0,0.022222222222222223,52.08888888888889,0)" xlink:href="#X"/></g><path d="M571-32c-11 40-79 39-96 0l-73-173c-26 60-49 123-76 182-17 35-78 24-92-9L70-420c-29-59 66-105 95-39l118 269 70-167c16-42 80-41 98 0l71 167 118-269c22-68 122-22 96 39" id="aM"/><g id="D"><use transform="matrix(0.022222222222222223,0,0,0.022222222222222223,0,0)" xlink:href="#ah"/><use transform="matrix(0.022222222222222223,0,0,0.022222222222222223,13.622222222222224,0)" xlink:href="#ab"/><use transform="matrix(0.022222222222222223,0,0,0.022222222222222223,26.6,0)" xlink:href="#aM"/></g><path d="M187-360c0 139 116 246 253 246 62 0 116-20 161-55 23-18 61-14 80 11 19 24 14 61-10 80C608-29 528 0 440 0 240 0 73-161 73-360c0-198 167-359 367-360 88 0 168 28 231 78 24 19 29 55 10 80s-57 29-80 11c-44-36-99-55-161-55-137-1-253 109-253 246" id="aN"/><g id="E"><use transform="matrix(0.022222222222222223,0,0,0.022222222222222223,0,0)" xlink:href="#aN"/><use transform="matrix(0.022222222222222223,0,0,0.022222222222222223,17.133333333333333,0)" xlink:href="#ae"/><use transform="matrix(0.022222222222222223,0,0,0.022222222222222223,30.88888888888889,0)" xlink:href="#af"/></g><path fill="#3a414a" d="M104-55v-590c-1-77 102-55 173-55 193 0 349 157 349 349C626-157 470 0 277 0c-71 0-173 21-173-55zm111-534v478h62c132-1 238-107 238-240 0-131-106-238-238-238h-62" id="aO"/><g id="F"><use transform="matrix(0.03333333333333332,0,0,0.03333333333333332,0,0)" xlink:href="#aL"/><use transform="matrix(0.03333333333333332,0,0,0.03333333333333332,20.833333333333325,0)" xlink:href="#aO"/><use transform="matrix(0.03333333333333332,0,0,0.03333333333333332,43.79999999999998,0)" xlink:href="#aO"/></g><path fill="#3a414a" d="M237-500c46-6 81 15 81 55 0 39-35 61-81 55v279c31 0 55 25 55 56S268 0 237 0c-61 0-111-50-111-111v-279c-49 7-84-14-84-55 0-42 35-61 84-55 8-77-29-200 56-200 84 0 47 123 55 200" id="aP"/><path fill="#3a414a" d="M298-590c-47 0-35 6-41 71 49-6 85 13 85 55 0 41-36 62-85 55v353c0 30-24 55-55 55s-55-25-55-55v-353c-47 6-82-16-82-55 0-40 35-61 82-55-6-111 44-186 151-182 30 0 55 25 55 55 0 31-25 56-55 56" id="aQ"/><g id="G"><use transform="matrix(0.03333333333333332,0,0,0.03333333333333332,0,0)" xlink:href="#aO"/><use transform="matrix(0.03333333333333332,0,0,0.03333333333333332,20.966666666666658,0)" xlink:href="#M"/><use transform="matrix(0.03333333333333332,0,0,0.03333333333333332,41.59999999999998,0)" xlink:href="#aP"/><use transform="matrix(0.03333333333333332,0,0,0.03333333333333332,53.93333333333331,0)" xlink:href="#M"/><use transform="matrix(0.03333333333333332,0,0,0.03333333333333332,74.56666666666663,0)" xlink:href="#aQ"/><use transform="matrix(0.03333333333333332,0,0,0.03333333333333332,86.6333333333333,0)" xlink:href="#N"/><use transform="matrix(0.03333333333333332,0,0,0.03333333333333332,100.4333333333333,0)" xlink:href="#M"/><use transform="matrix(0.03333333333333332,0,0,0.03333333333333332,121.06666666666662,0)" xlink:href="#P"/><use transform="matrix(0.03333333333333332,0,0,0.03333333333333332,152.7666666666666,0)" xlink:href="#J"/></g><g id="H"><use transform="matrix(0.03333333333333332,0,0,0.03333333333333332,0,0)" xlink:href="#aO"/><use transform="matrix(0.03333333333333332,0,0,0.03333333333333332,20.966666666666658,0)" xlink:href="#M"/><use transform="matrix(0.03333333333333332,0,0,0.03333333333333332,41.59999999999998,0)" xlink:href="#aP"/><use transform="matrix(0.03333333333333332,0,0,0.03333333333333332,53.93333333333331,0)" xlink:href="#M"/><use transform="matrix(0.03333333333333332,0,0,0.03333333333333332,74.56666666666663,0)" xlink:href="#aK"/><use transform="matrix(0.03333333333333332,0,0,0.03333333333333332,90.96666666666663,0)" xlink:href="#J"/><use transform="matrix(0.03333333333333332,0,0,0.03333333333333332,109.93333333333328,0)" xlink:href="#aP"/></g></defs></g></svg>